<?xml version="1.0" encoding="UTF-8" standalone="no"?>
<!-- Created with Inkscape (http://www.inkscape.org/) -->

<svg
   version="1.1"
   id="svg2073"
   width="379.0925"
   height="380.75732"
   xmlns:inkscape="http://www.inkscape.org/namespaces/inkscape"
   xmlns:sodipodi="http://sodipodi.sourceforge.net/DTD/sodipodi-0.dtd"
   xmlns="http://www.w3.org/2000/svg"
   xmlns:svg="http://www.w3.org/2000/svg">
  <defs
     id="defs2077" />
  <sodipodi:namedview
     id="namedview2075"
     pagecolor="#ffffff"
     bordercolor="#666666"
     borderopacity="1.0"
     inkscape:pageshadow="2"
     inkscape:pageopacity="0.0"
     inkscape:pagecheckerboard="0" />
  <inkscape:clipboard
     style="font-variation-settings:normal;opacity:1;vector-effect:none;fill:#f2753b;fill-opacity:1;stroke:none;stroke-width:0;stroke-linecap:butt;stroke-linejoin:miter;stroke-miterlimit:4;stroke-dasharray:none;stroke-dashoffset:0;stroke-opacity:1;-inkscape-stroke:none;stop-color:#000000;stop-opacity:1"
     min="1292.9581,535.18548"
     max="1672.0506,915.9428"
     geom-min="1292.9581,535.18548"
     geom-max="1672.0506,915.9428" />
  <g
     id="g2079"
     transform="matrix(3.7795276,0,0,3.7795276,-1292.9581,-535.18548)">
    <path
       style="fill:#f2753b;fill-opacity:1;stroke:none;stroke-width:0;stroke-miterlimit:4;stroke-dasharray:none"
       d="m 348.40309,242.09845 c -1.89403,-0.62558 -3.84161,-2.09044 -4.97155,-3.73933 l -1.15702,-1.6884 -0.125,-44.0002 c -0.12284,-43.24057 -0.10867,-44.03219 0.82065,-45.85381 1.27736,-2.50385 3.59161,-4.16411 6.5995,-4.73454 3.38184,-0.64135 81.97071,-0.64135 85.35256,0 3.00789,0.57043 5.32212,2.23069 6.5995,4.73454 0.92933,1.82162 0.94348,2.61324 0.82063,45.85381 l -0.12498,44.0002 -1.12403,1.64025 c -0.6182,0.90214 -1.89106,2.15938 -2.82856,2.79387 l -1.70455,1.15362 -43.60715,0.0757 c -23.98393,0.0416 -44.03143,-0.0644 -44.55,-0.23572 z m 32.88105,-59.33024 c 1.36185,-0.95714 2.53498,-1.77621 2.60696,-1.82016 0.072,-0.0439 -1.05242,-2.59823 -2.49867,-5.67619 -2.65456,-5.64954 -2.94341,-7.31443 -1.37354,-7.91685 1.44877,-0.55595 2.37038,0.63037 4.89773,6.3045 l 2.55468,5.73546 2.70115,-0.3135 c 4.68435,-0.54367 11.086,1.39767 14.12071,4.28223 2.45153,2.3302 3.30383,1.86722 11.1904,-6.07881 4.13628,-4.16745 7.16952,-7.59818 7.16952,-8.10901 0,-1.35999 -4.98975,-5.8866 -9.19284,-8.33957 -11.4893,-6.70527 -26.51417,-7.54241 -38.39969,-2.13951 -5.69292,2.58788 -13.22174,8.60966 -13.22174,10.57516 0,0.43415 3.22628,4.03996 7.16952,8.01293 8.19391,8.25568 8.27785,8.29318 12.27581,5.48332 z"
       id="path971" />
  </g>
</svg>
