<?xml version="1.0" encoding="UTF-8" standalone="no"?>
<!-- Created with Inkscape (http://www.inkscape.org/) -->

<svg
   version="1.1"
   id="svg2479"
   width="336.3714"
   height="377.72348"
   xmlns:inkscape="http://www.inkscape.org/namespaces/inkscape"
   xmlns:sodipodi="http://sodipodi.sourceforge.net/DTD/sodipodi-0.dtd"
   xmlns="http://www.w3.org/2000/svg"
   xmlns:svg="http://www.w3.org/2000/svg">
  <defs
     id="defs2483" />
  <sodipodi:namedview
     id="namedview2481"
     pagecolor="#ffffff"
     bordercolor="#666666"
     borderopacity="1.0"
     inkscape:pageshadow="2"
     inkscape:pageopacity="0.0"
     inkscape:pagecheckerboard="0" />
  <inkscape:clipboard
     min="123.57244,1154.1837"
     max="459.94382,1531.9072"
     geom-min="123.57244,1154.1837"
     geom-max="459.94382,1531.9072" />
  <g
     id="g2485"
     transform="matrix(3.7795276,0,0,3.7795276,-123.57244,-1154.1837)">
    <path
       style="fill:#f2753b;fill-opacity:1;stroke:none;stroke-width:0;stroke-miterlimit:4;stroke-dasharray:none"
       d="m 75.221346,404.38887 c -0.84894,-0.51762 -1.66051,-1.48835 -1.83905,-2.19973 -0.17577,-0.70029 -0.0809,-4.15419 0.21085,-7.67533 0.29174,-3.52115 0.671,-8.17078 0.84281,-10.33252 l 0.31238,-3.93045 -2.72656,-7.25761 c -2.66921,-7.10498 -2.75927,-7.26375 -4.28202,-7.54942 -0.8555,-0.16049 -1.81281,-0.20602 -2.12736,-0.10117 -0.31454,0.10485 -2.40004,4.20549 -4.63443,9.11254 -4.63338,10.17556 -3.40365,8.81865 -15.33521,16.92132 -7.87791,5.34986 -9.34111,5.74352 -11.66805,3.13922 -1.54784,-1.73233 -1.69846,-3.66466 -0.41303,-5.29882 0.49467,-0.62887 4.30428,-3.46837 8.4658,-6.31 6.7672,-4.62088 7.66365,-5.39067 8.4871,-7.28803 0.50639,-1.16678 2.39386,-5.30357 4.19439,-9.19286 2.91737,-6.30176 3.5426,-8.20026 5.74444,-17.44285 3.84294,-16.13138 3.87266,-16.22875 5.41152,-17.73327 1.73774,-1.69896 4.12647,-1.79382 9.50408,-0.37741 3.15466,0.8309 4.57789,0.94065 9.24083,0.7126 3.17647,-0.15536 6.17265,-0.55789 7.07143,-0.95004 2.99444,-1.30649 7.92386,-3.01941 7.92386,-2.75344 0,0.14745 -0.73961,1.59065 -1.64359,3.20711 -1.10062,1.9681 -2.01425,3.03205 -2.76559,3.22062 -0.6171,0.15489 -2.87632,1.26816 -5.02048,2.47396 -5.21918,2.93505 -6.59733,3.22084 -8.55761,1.7746 -3.04156,-2.244 -2.74688,-1.03802 0.68729,2.81274 l 2.04001,2.28748 3.7407,-2.01624 c 2.05738,-1.10894 4.56562,-2.53076 5.57387,-3.15962 2.15641,-1.34499 4.68901,-1.47897 5.97404,-0.31603 1.044884,0.94561 1.222814,3.78605 0.30994,4.94781 -0.86382,1.09933 -15.11072,8.93341 -16.24612,8.93341 -1.78335,0 -2.44099,-0.52572 -6.29725,-5.0341 -2.09831,-2.45316 -3.91926,-4.35613 -4.04655,-4.22884 -0.28926,0.28926 3.87867,8.52778 5.28281,10.44223 l 1.03781,1.415 -0.94708,3.87203 -0.94708,3.87203 2.49511,6.7344 c 1.37231,3.70392 2.78367,7.5362 3.13634,8.51619 0.38689,1.07502 0.54719,2.75801 0.40412,4.24286 -0.13043,1.35358 -0.56849,6.27963 -0.97347,10.94677 -0.40498,4.66715 -0.9657,9.07912 -1.24604,9.80438 -0.52497,1.35816 -2.51106,2.68983 -4.00705,2.68672 -0.46663,-0.001 -1.53219,-0.41868 -2.36791,-0.92824 z"
       id="path1199" />
    <path
       style="fill:#f2753b;fill-opacity:1;stroke:none;stroke-width:0;stroke-miterlimit:4;stroke-dasharray:none"
       d="m 75.253946,326.65121 c -2.84267,-1.33132 -4.60073,-4.46803 -4.29392,-7.66114 0.34597,-3.60058 3.14384,-6.60929 6.78058,-7.29155 1.97234,-0.37001 6.07416,1.5164 7.45421,3.42818 1.29021,1.7873 1.53262,5.6919 0.48981,7.88946 -1.82375,3.84325 -6.50368,5.47419 -10.43068,3.63505 z"
       id="path1275" />
    <path
       style="fill:#f2753b;fill-opacity:1;stroke:none;stroke-width:0;stroke-miterlimit:4;stroke-dasharray:none"
       d="m 115.80079,330.93364 c -2.80729,-0.42506 -3.70241,-4.55716 -1.41366,-6.52586 0.71453,-0.61461 1.80585,-1.11748 2.42514,-1.11748 1.86007,0 3.72429,1.96348 3.72429,3.9226 0,2.67154 -1.88485,4.1524 -4.73577,3.72074 z"
       id="path1464" />
    <path
       style="fill:#f2753b;fill-opacity:1;stroke:none;stroke-width:0;stroke-miterlimit:4;stroke-dasharray:none"
       d="m 101.52264,335.34558 -1.04811,-1.11567 2.1982,-3.87403 2.19821,-3.87402 -1.27202,-2.83443 c -1.57422,-3.50784 -1.45888,-6.3784 0.42161,-10.49284 2.33873,-5.11705 5.86491,-7.77994 10.29796,-7.77681 5.0011,0.004 7.78386,3.49837 7.32612,9.2008 -0.32944,4.10413 -1.14161,5.60939 -3.1293,5.79975 -1.45813,0.13965 -1.56697,0.0612 -1.30853,-0.94286 1.11396,-4.32799 1.35858,-6.055 1.07315,-7.57648 -0.44107,-2.35112 -1.28793,-3.06609 -3.67058,-3.09898 -4.85531,-0.067 -8.87565,4.80942 -8.87565,10.76563 0,2.52593 1.24877,4.55121 2.95583,4.79382 1.79116,0.25456 1.64649,2.35618 -0.26242,3.81218 -0.88475,0.67484 -2.37544,2.69865 -3.34055,4.53526 -0.95856,1.82414 -1.91675,3.42411 -2.12932,3.55548 -0.21257,0.13138 -0.85813,-0.26319 -1.4346,-0.8768 z"
       id="path1540" />
  </g>
</svg>
